<?xml version="1.0" encoding="UTF-8" standalone="no"?>
<!-- Created with Inkscape (http://www.inkscape.org/) -->

<svg
   width="29.18424mm"
   height="25.90361mm"
   viewBox="0 0 29.18424 25.90361"
   version="1.1"
   id="svg5"
   xml:space="preserve"
   xmlns="http://www.w3.org/2000/svg"
   xmlns:svg="http://www.w3.org/2000/svg"><defs
     id="defs2" /><g
     id="layer1"
     transform="translate(-19.601244,-25.401267)"><g
       fill="none"
       fill-rule="evenodd"
       transform="matrix(0.80948776,0,0,0.80948776,19.601245,25.401267)"
       id="g89"><polygon
         fill="#34495e"
         points="28.905,0 21.981,0 18,7.078 14.02,0 7.096,0 18,19.385 "
         id="polygon87" /><polygon
         fill="#41b883"
         points="36,0 28.904,0 18,19.385 7.095,0 0,0 18,32 "
         id="polygon85" /></g><g
       id="g83"
       transform="matrix(0.23470675,0,0,0.23470675,33.764254,36.154623)"><g
         id="Layer_1">
	<g
   id="g29">
		<circle
   class="st0"
   cx="32"
   cy="32"
   r="32"
   id="circle27" />
	</g>
	<g
   class="st1"
   id="g33">
		<path
   class="st2"
   d="m 52,44 c 0,2.2 -1.8,4 -4,4 H 16 c -2.2,0 -4,-1.8 -4,-4 V 26 c 0,-2.2 1.8,-4 4,-4 h 32 c 2.2,0 4,1.8 4,4 z"
   id="path31" />
	</g>
	<g
   id="g37">
		<path
   class="st3"
   d="M 38,17 V 37 H 26 V 17 h 12 m 0,-4 H 26 c -2.2,0 -4,1.8 -4,4 v 20 c 0,2.2 1.8,4 4,4 h 12 c 2.2,0 4,-1.8 4,-4 V 17 c 0,-2.2 -1.8,-4 -4,-4 z"
   id="path35" />
	</g>
	<g
   id="g43">
		<g
   id="g41">
			<path
   class="st4"
   d="m 12,29 v 13 c 0,2.2 1.8,4 4,4 h 32 c 2.2,0 4,-1.8 4,-4 V 29 Z"
   id="path39" />
		</g>
	</g>
	<g
   id="g47">
		<path
   class="st5"
   d="m 36,28 v 3 h -8 v -3 h 8 m 0,-4 h -8 c -2.2,0 -4,1.8 -4,4 v 3 c 0,2.2 1.8,4 4,4 h 8 c 2.2,0 4,-1.8 4,-4 v -3 c 0,-2.2 -1.8,-4 -4,-4 z"
   id="path45" />
	</g>
	<g
   class="st1"
   id="g51">
		<path
   class="st2"
   d="m 52,26 c 0,-2.2 -1.8,-4 -4,-4 H 16 c -2.2,0 -4,1.8 -4,4 v 5 h 40 z"
   id="path49" />
	</g>
	<g
   id="g55">
		<path
   class="st4"
   d="m 52,24 c 0,-2.2 -1.8,-4 -4,-4 H 16 c -2.2,0 -4,1.8 -4,4 v 5 h 40 z"
   id="path53" />
	</g>
</g><g
         id="Layer_2">
</g></g></g><style
     type="text/css"
     id="style25">
	.st0{fill:#E0E0D1;}
	.st1{opacity:0.2;}
	.st2{fill:#231F20;}
	.st3{fill:#4F5D73;}
	.st4{fill:#C75C5C;}
	.st5{fill:#F5CF87;}
</style></svg>
